<mxfile host="app.diagrams.net" modified="2021-03-26T23:56:27.729Z" agent="5.0 (Windows NT 10.0; Win64; x64) AppleWebKit/537.36 (KHTML, like Gecko) Chrome/89.0.4389.90 Safari/537.36" etag="RQ0_3WJRJCbo-idP4vwz" version="14.5.1" type="github">
  <diagram id="kgpKYQtTHZ0yAKxKKP6v" name="Page-1">
    <mxGraphModel dx="1460" dy="543" grid="0" gridSize="10" guides="1" tooltips="1" connect="1" arrows="1" fold="1" page="1" pageScale="1" pageWidth="1390" pageHeight="980" background="none" math="0" shadow="1">
      <root>
        <mxCell id="0" />
        <mxCell id="1" parent="0" />
        <mxCell id="3nuBFxr9cyL0pnOWT2aG-1" value="HOB Logístico&#xa;Panama Pacifico" style="shape=umlLifeline;perimeter=lifelinePerimeter;container=1;collapsible=0;recursiveResize=0;rounded=0;shadow=0;strokeWidth=1;" parent="1" vertex="1">
          <mxGeometry x="120" y="80" width="100" height="563" as="geometry" />
        </mxCell>
        <mxCell id="3nuBFxr9cyL0pnOWT2aG-2" value="" style="points=[];perimeter=orthogonalPerimeter;rounded=0;shadow=0;strokeWidth=1;" parent="3nuBFxr9cyL0pnOWT2aG-1" vertex="1">
          <mxGeometry x="45" y="70" width="10" height="291" as="geometry" />
        </mxCell>
        <mxCell id="3nuBFxr9cyL0pnOWT2aG-5" value="Punto de &#xa;Distribución intermedia" style="shape=umlLifeline;perimeter=lifelinePerimeter;container=1;collapsible=0;recursiveResize=0;rounded=0;shadow=0;strokeWidth=1;" parent="1" vertex="1">
          <mxGeometry x="591" y="75.5" width="140" height="566.5" as="geometry" />
        </mxCell>
        <mxCell id="3nuBFxr9cyL0pnOWT2aG-6" value="" style="points=[];perimeter=orthogonalPerimeter;rounded=0;shadow=0;strokeWidth=1;" parent="3nuBFxr9cyL0pnOWT2aG-5" vertex="1">
          <mxGeometry x="69" y="227" width="10" height="269" as="geometry" />
        </mxCell>
        <mxCell id="HICihGH0wUobHjoNpLKp-1" value="Consultora" style="shape=umlLifeline;perimeter=lifelinePerimeter;container=1;collapsible=0;recursiveResize=0;rounded=0;shadow=0;strokeWidth=1;" vertex="1" parent="1">
          <mxGeometry x="886" y="71" width="100" height="571" as="geometry" />
        </mxCell>
        <mxCell id="HICihGH0wUobHjoNpLKp-3" value="Aplicacion Liberr" style="shape=umlLifeline;perimeter=lifelinePerimeter;container=1;collapsible=0;recursiveResize=0;rounded=0;shadow=0;strokeWidth=1;" vertex="1" parent="1">
          <mxGeometry x="358" y="80" width="100" height="568" as="geometry" />
        </mxCell>
        <mxCell id="HICihGH0wUobHjoNpLKp-4" value="" style="points=[];perimeter=orthogonalPerimeter;rounded=0;shadow=0;strokeWidth=1;" vertex="1" parent="HICihGH0wUobHjoNpLKp-3">
          <mxGeometry x="45" y="70" width="10" height="420" as="geometry" />
        </mxCell>
        <mxCell id="HICihGH0wUobHjoNpLKp-5" value="HOB, solicita vehiculo distribucion para consolidar entregar por zonas" style="text;html=1;strokeColor=none;fillColor=none;align=center;verticalAlign=middle;whiteSpace=wrap;rounded=0;" vertex="1" parent="1">
          <mxGeometry x="178" y="136" width="212" height="99" as="geometry" />
        </mxCell>
        <mxCell id="HICihGH0wUobHjoNpLKp-9" value="" style="endArrow=classic;html=1;exitX=0;exitY=0.75;exitDx=0;exitDy=0;entryX=1;entryY=0.75;entryDx=0;entryDy=0;" edge="1" parent="1" source="HICihGH0wUobHjoNpLKp-5" target="HICihGH0wUobHjoNpLKp-5">
          <mxGeometry width="50" height="50" relative="1" as="geometry">
            <mxPoint x="481" y="225" as="sourcePoint" />
            <mxPoint x="531" y="175" as="targetPoint" />
          </mxGeometry>
        </mxCell>
        <mxCell id="HICihGH0wUobHjoNpLKp-10" value="Liberr envia vehiculo para distribucion para consolidar entregar por zonas" style="text;html=1;strokeColor=none;fillColor=none;align=center;verticalAlign=middle;whiteSpace=wrap;rounded=0;" vertex="1" parent="1">
          <mxGeometry x="182.5" y="223" width="212" height="61" as="geometry" />
        </mxCell>
        <mxCell id="HICihGH0wUobHjoNpLKp-12" value="" style="endArrow=classic;html=1;exitX=0;exitY=0.75;exitDx=0;exitDy=0;" edge="1" parent="1" target="3nuBFxr9cyL0pnOWT2aG-5">
          <mxGeometry width="50" height="50" relative="1" as="geometry">
            <mxPoint x="183" y="388" as="sourcePoint" />
            <mxPoint x="395" y="388" as="targetPoint" />
          </mxGeometry>
        </mxCell>
        <mxCell id="HICihGH0wUobHjoNpLKp-13" value="Vehiculo Liberr recoge mercancia, firma consolidado, inicia sistema de seguimiento GPS" style="text;html=1;strokeColor=none;fillColor=none;align=center;verticalAlign=middle;whiteSpace=wrap;rounded=0;" vertex="1" parent="1">
          <mxGeometry x="192" y="338" width="193" height="37" as="geometry" />
        </mxCell>
        <mxCell id="HICihGH0wUobHjoNpLKp-14" value="Responsable punto de distribución firma consolidado, recibe mercancía" style="text;html=1;strokeColor=none;fillColor=none;align=center;verticalAlign=middle;whiteSpace=wrap;rounded=0;" vertex="1" parent="1">
          <mxGeometry x="422" y="334" width="215" height="37" as="geometry" />
        </mxCell>
        <mxCell id="HICihGH0wUobHjoNpLKp-15" value="Responsable centro distribucion solicita vehiculo para entrega a consultora" style="text;html=1;strokeColor=none;fillColor=none;align=center;verticalAlign=middle;whiteSpace=wrap;rounded=0;" vertex="1" parent="1">
          <mxGeometry x="419" y="407" width="206" height="37" as="geometry" />
        </mxCell>
        <mxCell id="HICihGH0wUobHjoNpLKp-16" value="" style="endArrow=classic;html=1;entryX=1.133;entryY=0.423;entryDx=0;entryDy=0;entryPerimeter=0;" edge="1" parent="1">
          <mxGeometry width="50" height="50" relative="1" as="geometry">
            <mxPoint x="656.1700000000003" y="452.00399999999996" as="sourcePoint" />
            <mxPoint x="425.00000000000017" y="452.00399999999996" as="targetPoint" />
          </mxGeometry>
        </mxCell>
        <mxCell id="HICihGH0wUobHjoNpLKp-17" value="" style="endArrow=classic;html=1;entryX=1.133;entryY=0.423;entryDx=0;entryDy=0;entryPerimeter=0;" edge="1" parent="1">
          <mxGeometry width="50" height="50" relative="1" as="geometry">
            <mxPoint x="404.0800000000001" y="293.2839999999999" as="sourcePoint" />
            <mxPoint x="172.91000000000025" y="293.2839999999999" as="targetPoint" />
          </mxGeometry>
        </mxCell>
        <mxCell id="HICihGH0wUobHjoNpLKp-19" value="" style="endArrow=classic;html=1;exitX=0;exitY=0.75;exitDx=0;exitDy=0;entryX=1;entryY=0.75;entryDx=0;entryDy=0;" edge="1" parent="1">
          <mxGeometry width="50" height="50" relative="1" as="geometry">
            <mxPoint x="426.5" y="545.29" as="sourcePoint" />
            <mxPoint x="638.5" y="545.29" as="targetPoint" />
          </mxGeometry>
        </mxCell>
        <mxCell id="HICihGH0wUobHjoNpLKp-23" value="Text" style="edgeLabel;html=1;align=center;verticalAlign=middle;resizable=0;points=[];" vertex="1" connectable="0" parent="HICihGH0wUobHjoNpLKp-19">
          <mxGeometry x="0.3441" y="-1" relative="1" as="geometry">
            <mxPoint as="offset" />
          </mxGeometry>
        </mxCell>
        <mxCell id="HICihGH0wUobHjoNpLKp-20" value="Liberr envia vehiculo para rocoger mercancia para despacho a consultora, firma consolidado, inicia sistema de seguimiento" style="text;html=1;strokeColor=none;fillColor=none;align=center;verticalAlign=middle;whiteSpace=wrap;rounded=0;" vertex="1" parent="1">
          <mxGeometry x="426.5" y="465" width="206" height="71" as="geometry" />
        </mxCell>
        <mxCell id="HICihGH0wUobHjoNpLKp-21" value="" style="points=[];perimeter=orthogonalPerimeter;rounded=0;shadow=0;strokeWidth=1;" vertex="1" parent="1">
          <mxGeometry x="931" y="439" width="10" height="141" as="geometry" />
        </mxCell>
        <mxCell id="HICihGH0wUobHjoNpLKp-22" value="" style="endArrow=classic;html=1;exitX=0;exitY=0.75;exitDx=0;exitDy=0;" edge="1" parent="1">
          <mxGeometry width="50" height="50" relative="1" as="geometry">
            <mxPoint x="683" y="545.29" as="sourcePoint" />
            <mxPoint x="917" y="545" as="targetPoint" />
          </mxGeometry>
        </mxCell>
        <mxCell id="HICihGH0wUobHjoNpLKp-24" value="Consultora Firma recibido, se registra punto de entrega GPS, se cierra la entrega" style="text;html=1;strokeColor=none;fillColor=none;align=center;verticalAlign=middle;whiteSpace=wrap;rounded=0;" vertex="1" parent="1">
          <mxGeometry x="690" y="471" width="232" height="71" as="geometry" />
        </mxCell>
      </root>
    </mxGraphModel>
  </diagram>
</mxfile>
